# xmcd CD database file
#
# Track frame offsets:
#	150
#	34494
#	55821
#	92848
#	118287
#	142071
#	173265
#	218569
#	260478
#	292529
#	313793
#
# Disc length: 4647 seconds
#
# Revision: 1
# Processed by: cddbd v1.5.2PL0 Copyright (c) Steve Scherf et al.
# Submitted via: CDex 1.51
#
DISCID=9d12250b
DTITLE=Chris Cleave - Little Bee
DYEAR=2011
DGENRE=Hörbuch
TTITLE0=201
TTITLE1=202
TTITLE2=203
TTITLE3=204
TTITLE4=205
TTITLE5=206
TTITLE6=207
TTITLE7=208
TTITLE8=209
TTITLE9=210
TTITLE10=211
EXTD=YEAR: 2011
EXTT0=
EXTT1=
EXTT2=
EXTT3=
EXTT4=
EXTT5=
EXTT6=
EXTT7=
EXTT8=
EXTT9=
EXTT10=
PLAYORDER=
